<?xml version="1.0" encoding="utf-8"?><svg viewBox="0 0 154 53" xmlns="http://www.w3.org/2000/svg" xmlns:xlink="http://www.w3.org/1999/xlink"><style>:root>svg{display:none}:root>svg:target{display:block}</style><svg viewBox="0 0 154 52" id="appstore" xmlns="http://www.w3.org/2000/svg"><path d="M153.762 37.887c0 7.458-6.11 13.568-13.568 13.568H13.568C6.11 51.455 0 45.345 0 37.887V13.762C0 6.304 6.11.194 13.568.194h126.626c7.458 0 13.568 6.11 13.568 13.568v24.125Z"/><path d="m58.525 19.044-.65-1.6h-3.02l-.65 1.6h-.8l2.67-6.5h.58l2.67 6.5h-.8Zm-3.39-2.3h2.45l-1.23-3.03-1.22 3.03Zm5.838 2.3-1.81-4.6h.75l1.42 3.61 1.43-3.61h.75l-1.83 4.6h-.71Zm7.01-4.6h.73v4.6h-.73v-.83c-.35.55-.93.91-1.71.91-1.31 0-2.24-1.01-2.24-2.38 0-1.38.93-2.37 2.24-2.37.78 0 1.36.35 1.71.9v-.83Zm-1.62 3.99c.99 0 1.62-.71 1.62-1.69s-.63-1.68-1.62-1.68c-.98 0-1.63.7-1.63 1.68s.65 1.69 1.63 1.69Zm4.041-4.97c-.22 0-.44-.18-.44-.45s.22-.43.44-.43.44.16.44.43-.22.45-.44.45Zm.36 5.58h-.72v-4.6h.73l-.01 4.6Zm2.059 0h-.72v-6.5h.72v6.5Zm5.072-4.6h.73v4.6h-.73v-.83c-.35.55-.93.91-1.71.91-1.31 0-2.24-1.01-2.24-2.38 0-1.38.93-2.37 2.24-2.37.78 0 1.36.35 1.71.9v-.83Zm-1.62 3.99c.99 0 1.62-.71 1.62-1.69s-.63-1.68-1.62-1.68c-.98 0-1.63.7-1.63 1.68s.65 1.69 1.63 1.69Zm6.031-4.06c1.31 0 2.25.99 2.25 2.37 0 1.37-.94 2.38-2.25 2.38-.78 0-1.36-.36-1.71-.91v.83h-.72v-6.5h.72v2.73c.35-.55.93-.9 1.71-.9Zm-.09 4.06c.98 0 1.63-.71 1.63-1.69s-.65-1.68-1.63-1.68c-.98 0-1.62.7-1.62 1.68s.64 1.69 1.62 1.69Zm4.172.61h-.72v-6.5h.72v6.5Zm3.392-4.68c1.32 0 2.2 1.01 2.2 2.38v.23h-3.77c.09.92.72 1.53 1.63 1.53.68 0 1.15-.31 1.41-.7l.51.37c-.4.59-1.08.96-1.92.96-1.4 0-2.33-1.02-2.33-2.39s.89-2.38 2.27-2.38Zm0 .6c-.9 0-1.47.61-1.57 1.51h3.1c-.1-.87-.67-1.51-1.53-1.51Zm7.521 4.17c-1.38 0-2.34-1.02-2.34-2.39 0-1.38.96-2.38 2.34-2.38s2.34 1 2.34 2.38c0 1.37-.96 2.39-2.34 2.39Zm0-.7c.97 0 1.61-.72 1.61-1.69s-.64-1.68-1.61-1.68c-.97 0-1.62.71-1.62 1.68s.65 1.69 1.62 1.69Zm5.654-4.06c.92 0 1.83.54 1.83 1.84v2.83h-.72v-2.73c0-.88-.62-1.31-1.3-1.31-.69 0-1.29.43-1.29 1.31v2.73h-.72v-4.6h.72v.62c.35-.48.91-.69 1.48-.69Zm7.265.64h-1.1v2.83c0 .49.3.61.64.61h.41v.59h-.67c-.7 0-1.11-.4-1.11-1.1v-2.93h-.64v-.57h.64v-1.4h.73v1.4h1.1v.57Zm3.194-.64c.92 0 1.83.54 1.83 1.84v2.83h-.72v-2.73c0-.88-.62-1.31-1.3-1.31-.69 0-1.29.43-1.29 1.31v2.73h-.72v-6.5h.72v2.52c.35-.48.91-.69 1.48-.69Zm5.223-.01c1.32 0 2.2 1.01 2.2 2.38v.23h-3.77c.09.92.72 1.53 1.63 1.53.68 0 1.15-.31 1.41-.7l.51.37c-.4.59-1.08.96-1.92.96-1.4 0-2.33-1.02-2.33-2.39s.89-2.38 2.27-2.38Zm0 .6c-.9 0-1.47.61-1.57 1.51h3.1c-.1-.87-.67-1.51-1.53-1.51ZM60.472 40.194l-1.17-2.88h-5.436l-1.17 2.88h-1.44l4.806-11.7h1.044l4.806 11.7h-1.44Zm-6.102-4.14h4.41L56.566 30.6l-2.196 5.454Zm13.472-4.266c2.358 0 4.05 1.818 4.05 4.284 0 2.484-1.692 4.266-4.05 4.266-1.404 0-2.448-.63-3.078-1.638v4.806h-1.296V31.914h1.296v1.512c.63-1.008 1.674-1.638 3.078-1.638Zm-.162 7.308c1.764 0 2.934-1.26 2.934-3.024s-1.17-3.042-2.934-3.042c-1.764 0-2.916 1.278-2.916 3.042 0 1.764 1.152 3.024 2.916 3.024Zm10.585-7.308c2.359 0 4.05 1.818 4.05 4.284 0 2.484-1.691 4.266-4.05 4.266-1.403 0-2.448-.63-3.078-1.638v4.806h-1.296V31.914h1.296v1.512c.63-1.008 1.675-1.638 3.079-1.638Zm-.162 7.308c1.765 0 2.934-1.26 2.934-3.024s-1.17-3.042-2.934-3.042c-1.763 0-2.915 1.278-2.915 3.042 0 1.764 1.151 3.024 2.915 3.024Zm9.456-1.404 1.116-.738c.414 1.098 1.854 2.088 3.798 2.088 2.016 0 2.862-.756 2.862-2.106 0-1.53-2.286-1.89-3.348-2.196-1.134-.306-4.014-.792-4.014-3.204 0-2.196 1.872-3.24 4.374-3.24 2.16 0 3.888 1.044 4.32 2.322l-1.116.666c-.324-.864-1.656-1.638-3.348-1.638-1.746 0-2.7.684-2.7 1.836 0 1.44 2.088 1.746 3.24 2.052 1.044.306 4.086.918 4.086 3.348 0 2.304-1.674 3.51-4.482 3.51-2.52 0-4.23-1.17-4.788-2.7Zm15.076-4.752h-1.98v5.094c0 .882.54 1.098 1.152 1.098h.738v1.062h-1.206c-1.26 0-1.998-.72-1.998-1.98V32.94H98.19v-1.026h1.152v-2.52h1.314v2.52h1.98v1.026Zm5.328 7.416c-2.484 0-4.212-1.836-4.212-4.302 0-2.484 1.728-4.284 4.212-4.284s4.212 1.8 4.212 4.284c0 2.466-1.728 4.302-4.212 4.302Zm0-1.26c1.746 0 2.898-1.296 2.898-3.042 0-1.746-1.152-3.024-2.898-3.024-1.746 0-2.916 1.278-2.916 3.024s1.17 3.042 2.916 3.042Zm7.514-5.652c.63-1.134 1.746-1.638 2.916-1.656v1.242c-1.278.018-2.916.684-2.916 2.7v4.464h-1.296v-8.28h1.296v1.53Zm7.846-1.674c2.376 0 3.96 1.818 3.96 4.284v.414h-6.786c.162 1.656 1.296 2.754 2.934 2.754 1.224 0 2.07-.558 2.538-1.26l.918.666c-.72 1.062-1.944 1.728-3.456 1.728-2.52 0-4.194-1.836-4.194-4.302 0-2.466 1.602-4.284 4.086-4.284Zm0 1.08c-1.62 0-2.646 1.098-2.826 2.718h5.58c-.18-1.566-1.206-2.718-2.754-2.718ZM26.933 10.931H11.03a2.358 2.358 0 0 0-2.358 2.359V40.2a2.358 2.358 0 0 0 2.358 2.36h15.904a2.358 2.358 0 0 0 2.36-2.36V13.29c0-1.28-1.08-2.359-2.36-2.359Z"/><path d="M28.147 14.727H9.794v22.194h18.353V14.727ZM22.733 12.346h-7.525a.57.57 0 0 0-.562.562c0 .314.247.561.562.561h7.525a.57.57 0 0 0 .561-.561.57.57 0 0 0-.561-.562ZM17.185 39.594c0-.988.808-1.82 1.797-1.82.988 0 1.82.81 1.82 1.82 0 .989-.81 1.797-1.82 1.797-.989.023-1.797-.786-1.797-1.797Z"/></svg><svg viewBox="0 0 23 26" id="arrow-card" xmlns="http://www.w3.org/2000/svg"><path d="M11.568 1.286V23.89M22 15.196l-9.203 9.202a1.739 1.739 0 0 1-2.459 0l-9.202-9.202"/></svg><svg viewBox="0 0 23 27" id="arrow-card-black" xmlns="http://www.w3.org/2000/svg"><path d="M11.568 1.62v22.602M22 15.53l-9.203 9.203a1.739 1.739 0 0 1-2.459 0l-9.202-9.203"/></svg><svg viewBox="0 0 5 12" id="breadcrumbs-arrow" xmlns="http://www.w3.org/2000/svg"><path fill-rule="evenodd" clip-rule="evenodd" d="M.158 10.936a.5.5 0 0 1-.022-.707l3.79-4.033a.297.297 0 0 0 0-.392L.136 1.77a.5.5 0 0 1 .728-.685l3.79 4.033c.461.49.461 1.272 0 1.762l-3.79 4.033a.5.5 0 0 1-.706.022Z"/></svg><svg viewBox="0 0 20 14" id="categories-arrow" xmlns="http://www.w3.org/2000/svg"><path d="M18.957 7.718a.838.838 0 0 0 0-1.185l-5.332-5.332a.838.838 0 0 0-1.185 1.185l4.74 4.74-4.74 4.74a.838.838 0 0 0 1.185 1.184l5.332-5.332ZM.49 7.963h17.876V6.288H.489v1.675Z"/></svg><svg viewBox="0 0 18 18" id="check" xmlns="http://www.w3.org/2000/svg"><path d="M16 0H2a2 2 0 0 0-2 2v14a2 2 0 0 0 2 2h14a2 2 0 0 0 2-2V2a2 2 0 0 0-2-2ZM7 14 2 9l1.41-1.41L7 11.17l7.59-7.59L16 5l-9 9Z"/></svg><svg viewBox="0 0 23 20" id="comment-icon" xmlns="http://www.w3.org/2000/svg"><path d="M7.5 5.406a.75.75 0 1 0 0 1.5v-1.5Zm8 1.5a.75.75 0 0 0 0-1.5v1.5Zm-8 2.5a.75.75 0 1 0 0 1.5v-1.5Zm4 1.5a.75.75 0 0 0 0-1.5v1.5Zm9.782 3.157.668.341-.668-.34Zm-.874.874.34.669-.34-.668Zm0-13.563.34-.669-.34.668Zm.874.874.668-.341-.668.34Zm-18.69-.875.34.669-.34-.668Zm-.874.875.668.34-.668-.34Zm.99 16.294.432.612-.433-.612Zm3.962-2.8-.433-.613.433.613Zm-5.08 2.891.615-.43-.615.43Zm1.013-.03-.335-.67.335.67Zm-.676.238-.11.742.11-.742Zm.743-.274-.405-.631.405.631Zm-.026.016-.365-.655.365.655Zm5.124-3.393.138.737-.138-.737Zm-.468.148.314.682-.314-.682Zm.2-8.432h8v-1.5h-8v1.5Zm0 4h4v-1.5h-4v1.5Zm-2.8-9h13.6v-1.5H4.7v1.5Zm16.05 2.45v7.6h1.5v-7.6h-1.5Zm0 7.6c0 .572 0 .956-.025 1.252-.023.287-.065.424-.111.515l1.336.681c.172-.337.24-.694.27-1.074.03-.37.03-.827.03-1.374h-1.5Zm-2.45 3.95c.548 0 1.003 0 1.375-.03.38-.031.736-.098 1.073-.27l-.68-1.337c-.091.046-.228.088-.516.112-.295.024-.68.024-1.252.024v1.5Zm2.314-2.183a1.25 1.25 0 0 1-.547.546l.681 1.337a2.751 2.751 0 0 0 1.202-1.202l-1.336-.681ZM18.3 1.906c.572 0 .957 0 1.252.024.288.024.425.066.515.112l.681-1.337c-.337-.172-.693-.239-1.073-.27-.372-.03-.827-.03-1.375-.03v1.5Zm3.95 2.45c0-.548 0-1.004-.03-1.375-.03-.38-.098-.737-.27-1.074l-1.336.681c.046.09.088.228.111.515.024.296.025.68.025 1.253h1.5Zm-2.183-2.314c.236.12.427.31.547.546l1.336-.681A2.75 2.75 0 0 0 20.75.705l-.681 1.337ZM4.7.406c-.548 0-1.004-.001-1.375.03-.38.03-.736.097-1.073.27l.68 1.336c.091-.046.228-.088.515-.112.296-.024.68-.024 1.253-.024v-1.5Zm-2.45 3.95c0-.573 0-.957.025-1.253.023-.287.065-.424.111-.515L1.05 1.907c-.172.337-.24.694-.27 1.074-.03.371-.03.827-.03 1.375h1.5Zm.002-3.65A2.75 2.75 0 0 0 1.05 1.906l1.336.681a1.25 1.25 0 0 1 .547-.546L2.252.705Zm16.048 13.7H8.516v1.5H18.3v-1.5ZM3.14 19.154l3.963-2.8-.866-1.224-3.962 2.8.865 1.224ZM.75 17.861c0 .2 0 .401.014.567.015.164.053.409.212.635l1.229-.86c.068.098.06.17.053.088a2.26 2.26 0 0 1-.007-.16 16.71 16.71 0 0 1-.001-.27H.75Zm1.518.072c-.087.043-.156.078-.216.106-.06.028-.1.045-.126.055-.063.024-.002-.012.11.005l-.219 1.484c.261.039.487-.028.638-.085.15-.057.32-.141.483-.223l-.67-1.342Zm-1.292 1.13c.197.282.501.47.841.52l.22-1.484a.25.25 0 0 1 .168.104l-1.23.86ZM2.25 17.86V4.356H.75V17.86h1.5Zm.025.068-.012.008a.227.227 0 0 0-.005.004l.007-.005.81 1.263.065-.045-.865-1.225Zm.663 1.346c.015-.008.043-.021.071-.037l-.73-1.31.007-.004-.005.003-.013.006.67 1.342Zm-.673-1.34a.246.246 0 0 1 .014-.007l.73 1.31c.022-.012.044-.025.065-.039l-.809-1.263Zm6.251-3.53c-.35 0-.62-.002-.885.047l.275 1.475c.098-.019.206-.021.61-.021v-1.5Zm-1.413 1.95c.33-.234.42-.294.51-.335l-.626-1.364c-.245.113-.464.271-.75.473l.866 1.226Zm.528-1.903a2.75 2.75 0 0 0-.644.204l.627 1.364c.093-.043.191-.074.292-.093l-.275-1.475Z"/></svg><svg viewBox="0 0 11 19" id="facebook" xmlns="http://www.w3.org/2000/svg"><path d="M9.437 10.463 9.93 7.24h-3.09v-2.09c0-.881.43-1.74 1.815-1.74h1.405V.667S8.787.45 7.568.45c-2.545 0-4.21 1.543-4.21 4.336v2.455H.529v3.222h2.83v7.787H6.84v-7.787h2.597Z"/></svg><svg viewBox="0 0 21 20" id="google" xmlns="http://www.w3.org/2000/svg"><path d="M20.5 10.222c0-.822-.068-1.422-.215-2.045h-9.58v3.712h5.623c-.114.922-.726 2.31-2.086 3.244l-.02.124 3.03 2.3.21.02c1.927-1.744 3.038-4.31 3.038-7.355"/><path d="M10.703 20c2.755 0 5.068-.889 6.757-2.422l-3.22-2.445c-.861.59-2.018 1-3.537 1a6.131 6.131 0 0 1-5.805-4.155l-.12.01-3.15 2.389-.041.112C3.265 17.756 6.712 20 10.703 20Z"/><path d="M4.9 11.978A6.045 6.045 0 0 1 4.558 10c0-.689.125-1.356.329-1.978l-.006-.132-3.19-2.428-.104.049A9.847 9.847 0 0 0 .5 10c0 1.611.397 3.133 1.088 4.489L4.9 11.978"/><path d="M10.703 3.867c1.916 0 3.208.81 3.945 1.489l2.88-2.756C15.76.989 13.458 0 10.703 0 6.712 0 3.265 2.244 1.587 5.511l3.3 2.511a6.157 6.157 0 0 1 5.816-4.155"/></svg><svg viewBox="0 0 20 20" id="heart" xmlns="http://www.w3.org/2000/svg"><path fill-rule="evenodd" clip-rule="evenodd" d="M9.995 4.93c-1.5-1.747-4-2.217-5.879-.617-1.879 1.6-2.143 4.275-.668 6.168 1.227 1.574 4.94 4.892 6.156 5.966.136.12.204.18.284.204.069.02.145.02.214 0 .08-.023.147-.084.284-.204 1.216-1.074 4.929-4.392 6.156-5.966 1.475-1.893 1.243-4.585-.668-6.168-1.911-1.584-4.38-1.13-5.88.617Z"/></svg><svg viewBox="0 0 13 14" id="in" xmlns="http://www.w3.org/2000/svg"><path d="M2.839 4.244v9.028H.428V4.244h2.41ZM.277 1.891c0-.35.123-.64.368-.868.244-.228.572-.342.984-.342.406 0 .732.114.976.342.25.228.376.518.376.868s-.125.64-.376.868c-.244.228-.57.342-.976.342-.412 0-.74-.114-.984-.342a1.135 1.135 0 0 1-.368-.868Zm7.242 4.28v7.101H5.116V4.244H7.37l.15 1.927Zm-.35 2.27h-.65c0-.668.085-1.268.258-1.802.172-.54.414-.999.726-1.377a3.119 3.119 0 0 1 1.11-.876 3.345 3.345 0 0 1 1.451-.309c.423 0 .81.061 1.16.184.35.122.65.317.901.584.256.267.45.62.584 1.06.14.439.209.976.209 1.61v5.757h-2.42V7.506c0-.4-.055-.712-.167-.934a.937.937 0 0 0-.492-.467c-.211-.095-.473-.142-.784-.142-.323 0-.604.064-.843.192a1.675 1.675 0 0 0-.584.534 2.52 2.52 0 0 0-.342.784c-.078.3-.117.623-.117.968Z"/></svg><svg viewBox="0 0 17 17" id="inst" xmlns="http://www.w3.org/2000/svg"><path d="M8.466 4.67A3.988 3.988 0 0 0 4.47 8.664a3.988 3.988 0 0 0 3.995 3.995 3.988 3.988 0 0 0 3.994-3.995A3.988 3.988 0 0 0 8.466 4.67Zm0 6.591a2.602 2.602 0 0 1-2.597-2.597 2.6 2.6 0 0 1 2.597-2.597 2.6 2.6 0 0 1 2.597 2.597 2.602 2.602 0 0 1-2.597 2.597Zm5.09-6.755a.93.93 0 0 1-.932.932.932.932 0 1 1 .932-.932Zm2.645.946c-.059-1.248-.344-2.354-1.258-3.265-.911-.91-2.017-1.196-3.265-1.258-1.286-.073-5.142-.073-6.428 0-1.245.059-2.35.344-3.265 1.255C1.071 3.094.79 4.2.727 5.448c-.073 1.287-.073 5.142 0 6.428.059 1.249.344 2.354 1.258 3.265.915.91 2.017 1.196 3.265 1.258 1.286.073 5.142.073 6.428 0 1.248-.059 2.354-.344 3.264-1.258.911-.91 1.197-2.016 1.26-3.264.072-1.287.072-5.139 0-6.425Zm-1.662 7.805a2.63 2.63 0 0 1-1.48 1.48c-1.026.407-3.46.314-4.593.314-1.134 0-3.57.09-4.593-.313a2.63 2.63 0 0 1-1.48-1.481c-.408-1.026-.314-3.46-.314-4.593s-.09-3.57.313-4.592A2.63 2.63 0 0 1 3.873 2.59c1.026-.407 3.46-.313 4.593-.313s3.57-.09 4.592.313a2.63 2.63 0 0 1 1.481 1.48c.407 1.026.313 3.46.313 4.593s.094 3.57-.313 4.593Z"/></svg><svg viewBox="0 0 17 17" id="payment-icon" xmlns="http://www.w3.org/2000/svg"><path d="M1 4.75h15m-12 7.5h3m3 0h3M3.4 16h10.2c.84 0 1.26 0 1.581-.204.282-.18.512-.467.655-.82C16 14.576 16 14.05 16 13V4c0-1.05 0-1.575-.164-1.976a1.736 1.736 0 0 0-.655-.82C14.861 1 14.441 1 13.6 1H3.4c-.84 0-1.26 0-1.581.204-.282.18-.512.467-.656.82C1 2.424 1 2.95 1 4v9c0 1.05 0 1.575.163 1.976.144.353.374.64.656.82.32.204.74.204 1.581.204Z"/></svg><svg viewBox="0 0 53 53" id="play-icon" xmlns="http://www.w3.org/2000/svg"><circle cx="26.5" cy="26.5" r="26.5"/><path d="M34.085 22.17c3.333 1.924 3.333 6.736 0 8.66l-7.627 4.404c-3.334 1.924-7.5-.482-7.5-4.33v-8.807c0-3.85 4.166-6.255 7.5-4.33l7.627 4.403Z"/></svg><svg viewBox="0 0 154 52" id="playmarket" xmlns="http://www.w3.org/2000/svg"><path d="M153.762 37.865c0 7.458-6.11 13.568-13.568 13.568H13.568C6.11 51.433 0 45.323 0 37.865V13.762C0 6.304 6.11.194 13.568.194h126.626c7.458 0 13.568 6.11 13.568 13.568v24.103Z"/><path d="M54.927 14.594h.73v4.6h-.73v-.83c-.35.55-.93.91-1.71.91-1.31 0-2.24-1.01-2.24-2.38 0-1.38.93-2.37 2.24-2.37.78 0 1.36.35 1.71.9v-.83Zm-1.62 3.99c.99 0 1.62-.71 1.62-1.69s-.63-1.68-1.62-1.68c-.98 0-1.63.7-1.63 1.68s.65 1.69 1.63 1.69Zm5.8-4.06c.92 0 1.83.54 1.83 1.84v2.83h-.72v-2.73c0-.88-.62-1.31-1.3-1.31-.69 0-1.29.43-1.29 1.31v2.73h-.72v-4.6h.72v.62c.35-.48.91-.69 1.48-.69Zm6.904-1.83h.73v6.5h-.73v-.83c-.35.55-.93.91-1.71.91-1.31 0-2.24-1.01-2.24-2.38 0-1.38.93-2.37 2.24-2.37.78 0 1.36.35 1.71.9v-2.73Zm-1.62 5.89c.99 0 1.62-.71 1.62-1.69s-.63-1.68-1.62-1.68c-.98 0-1.63.7-1.63 1.68s.65 1.69 1.63 1.69Zm4.32-3.14c.35-.63.97-.91 1.62-.92v.69c-.71.01-1.62.38-1.62 1.5v2.48h-.72v-4.6h.72v.85Zm4.43 3.84c-1.38 0-2.34-1.02-2.34-2.39 0-1.38.96-2.38 2.34-2.38s2.34 1 2.34 2.38c0 1.37-.96 2.39-2.34 2.39Zm0-.7c.97 0 1.61-.72 1.61-1.69s-.64-1.68-1.61-1.68c-.97 0-1.62.71-1.62 1.68s.65 1.69 1.62 1.69Zm3.894-4.97c-.22 0-.44-.18-.44-.45s.22-.43.44-.43.44.16.44.43-.22.45-.44.45Zm.36 5.58h-.72v-4.6h.73l-.01 4.6Zm5.15-6.5h.73v6.5h-.73v-.83c-.35.55-.93.91-1.71.91-1.31 0-2.24-1.01-2.24-2.38 0-1.38.93-2.37 2.24-2.37.78 0 1.36.35 1.71.9v-2.73Zm-1.62 5.89c.99 0 1.62-.71 1.62-1.69s-.63-1.68-1.62-1.68c-.98 0-1.63.7-1.63 1.68s.65 1.69 1.63 1.69Zm9.412-3.99h.73v4.6h-.73v-.83c-.35.55-.93.91-1.71.91-1.31 0-2.24-1.01-2.24-2.38 0-1.38.93-2.37 2.24-2.37.78 0 1.36.35 1.71.9v-.83Zm-1.62 3.99c.99 0 1.62-.71 1.62-1.69s-.63-1.68-1.62-1.68c-.98 0-1.63.7-1.63 1.68s.65 1.69 1.63 1.69Zm6.031-4.06c1.31 0 2.25 1.01 2.25 2.38 0 1.38-.94 2.37-2.25 2.37-.78 0-1.36-.35-1.71-.91v2.67h-.72v-6.44h.72v.84c.35-.56.93-.91 1.71-.91Zm-.09 4.06c.98 0 1.63-.7 1.63-1.68s-.65-1.69-1.63-1.69c-.98 0-1.62.71-1.62 1.69s.64 1.68 1.62 1.68Zm5.881-4.06c1.31 0 2.25 1.01 2.25 2.38 0 1.38-.94 2.37-2.25 2.37-.78 0-1.36-.35-1.71-.91v2.67h-.72v-6.44h.72v.84c.35-.56.93-.91 1.71-.91Zm-.09 4.06c.98 0 1.63-.7 1.63-1.68s-.65-1.69-1.63-1.69c-.98 0-1.62.71-1.62 1.69s.64 1.68 1.62 1.68Zm7.653.7c-1.38 0-2.34-1.02-2.34-2.39 0-1.38.96-2.38 2.34-2.38s2.34 1 2.34 2.38c0 1.37-.96 2.39-2.34 2.39Zm0-.7c.97 0 1.61-.72 1.61-1.69s-.64-1.68-1.61-1.68c-.97 0-1.62.71-1.62 1.68s.65 1.69 1.62 1.69Zm5.654-4.06c.92 0 1.83.54 1.83 1.84v2.83h-.72v-2.73c0-.88-.62-1.31-1.3-1.31-.69 0-1.29.43-1.29 1.31v2.73h-.72v-4.6h.72v.62c.35-.48.91-.69 1.48-.69ZM60.125 34.375c-.108 3.33-2.232 5.724-5.616 5.724-3.474 0-5.85-2.52-5.85-5.994 0-3.474 2.376-5.994 5.85-5.994 2.07 0 3.726.9 4.734 2.34l-1.116.792c-.828-1.152-2.124-1.764-3.618-1.764-2.682 0-4.5 1.944-4.5 4.626 0 2.682 1.818 4.626 4.5 4.626 2.214 0 3.852-1.422 4.086-3.672h-4.14v-1.26h5.67v.576Zm6.05 5.742c-2.483 0-4.211-1.836-4.211-4.302 0-2.484 1.728-4.284 4.212-4.284s4.212 1.8 4.212 4.284c0 2.466-1.728 4.302-4.212 4.302Zm0-1.26c1.747 0 2.899-1.296 2.899-3.042 0-1.746-1.152-3.024-2.898-3.024-1.746 0-2.916 1.278-2.916 3.024s1.17 3.042 2.916 3.042Zm10.178 1.26c-2.483 0-4.212-1.836-4.212-4.302 0-2.484 1.728-4.284 4.212-4.284 2.485 0 4.213 1.8 4.213 4.284 0 2.466-1.728 4.302-4.213 4.302Zm0-1.26c1.747 0 2.898-1.296 2.898-3.042 0-1.746-1.151-3.024-2.898-3.024-1.745 0-2.915 1.278-2.915 3.024s1.17 3.042 2.915 3.042Zm13.076-7.182h1.314v7.668c0 2.376-1.692 4.032-4.356 4.032-1.44 0-2.664-.558-3.42-1.458l.882-.738c.666.738 1.584 1.062 2.538 1.062 1.53 0 3.042-.918 3.042-2.898v-.882c-.63.99-1.674 1.638-3.078 1.638-2.358 0-4.032-1.818-4.032-4.284 0-2.466 1.674-4.266 4.032-4.266 1.404 0 2.448.63 3.078 1.62v-1.494Zm-2.916 7.182c1.764 0 2.916-1.278 2.916-3.042 0-1.764-1.152-3.024-2.916-3.024s-2.934 1.26-2.934 3.024 1.17 3.042 2.934 3.042Zm7.778 1.098h-1.296v-11.7h1.296v11.7Zm6.106-8.424c2.376 0 3.96 1.818 3.96 4.284v.414h-6.786c.162 1.656 1.296 2.754 2.934 2.754 1.224 0 2.07-.558 2.538-1.26l.918.666c-.72 1.062-1.944 1.728-3.456 1.728-2.52 0-4.194-1.836-4.194-4.302 0-2.466 1.602-4.284 4.086-4.284Zm0 1.08c-1.62 0-2.646 1.098-2.826 2.718h5.58c-.18-1.566-1.206-2.718-2.754-2.718Zm14.852-4.356c1.764 0 3.348 1.404 3.348 3.564s-1.584 3.564-3.348 3.564h-3.924v4.572h-1.35v-11.7h5.274Zm-.198 5.814c1.26 0 2.178-.99 2.178-2.25 0-1.242-.9-2.232-2.178-2.232h-3.726v4.482h3.726Zm6.732 5.886h-1.296v-11.7h1.296v11.7Zm9.131-8.28h1.314v8.28h-1.314V38.46c-.63.99-1.674 1.638-3.078 1.638-2.358 0-4.032-1.818-4.032-4.284 0-2.484 1.674-4.266 4.032-4.266 1.404 0 2.448.63 3.078 1.62v-1.494Zm-2.916 7.182c1.782 0 2.916-1.278 2.916-3.042 0-1.764-1.134-3.024-2.916-3.024-1.764 0-2.934 1.26-2.934 3.024s1.17 3.042 2.934 3.042Zm12.187-7.182h1.35l-4.608 11.592h-1.278l1.296-3.33-3.24-8.262h1.35l2.556 6.48 2.574-6.48ZM8.67 42.313V9.336l29.652 16.017-29.651 16.96Z"/><path d="m8.67 9.336 20.981 20.981 8.671-4.964L8.671 9.336Z"/><path d="M29.472 20.568 8.67 42.312l29.651-16.96-8.85-4.784Z"/><path d="m29.652 30.317 8.67-4.964-8.85-4.785-4.672 4.897 4.852 4.852Z"/></svg><svg viewBox="0 0 9 6" id="product-slide-arrow" xmlns="http://www.w3.org/2000/svg"><path fill-rule="evenodd" clip-rule="evenodd" d="M8.203 5.316a.588.588 0 0 1-.824-.111L4.445 1.357a.238.238 0 0 0-.253 0L1.258 5.205a.588.588 0 1 1-.935-.713L3.267.63a1.01 1.01 0 0 1 .158-.167 1.41 1.41 0 0 1 1.786 0c.072.06.124.122.159.167l2.944 3.862a.588.588 0 0 1-.111.824Z"/></svg><svg viewBox="0 0 24 45" id="promo-arrow" xmlns="http://www.w3.org/2000/svg"><g clip-path="url(#aqa)"><path fill-rule="evenodd" clip-rule="evenodd" d="M.566.698A1.705 1.705 0 0 1 2.426.33c.207.085.395.21.554.368l20.454 20.337a1.694 1.694 0 0 1 .5 1.2 1.687 1.687 0 0 1-.5 1.2L2.98 43.772a1.712 1.712 0 0 1-2.414 0 1.692 1.692 0 0 1 0-2.4l19.251-19.137L.566 3.098a1.694 1.694 0 0 1-.5-1.2 1.686 1.686 0 0 1 .5-1.2Z"/></g><defs><clipPath id="aqa"><path d="M0 0h24v44.471H0z"/></clipPath></defs></svg><svg viewBox="0 0 20 20" id="search" xmlns="http://www.w3.org/2000/svg"><path d="M16.636 17.697a.75.75 0 0 0 1.061-1.06l-1.06 1.06Zm-2.72-8.864a5.083 5.083 0 0 1-5.083 5.084v1.5a6.583 6.583 0 0 0 6.584-6.584h-1.5Zm-5.083 5.084A5.083 5.083 0 0 1 3.75 8.833h-1.5a6.583 6.583 0 0 0 6.583 6.584v-1.5ZM3.75 8.833A5.083 5.083 0 0 1 8.833 3.75v-1.5A6.583 6.583 0 0 0 2.25 8.833h1.5ZM8.833 3.75a5.083 5.083 0 0 1 5.084 5.083h1.5A6.583 6.583 0 0 0 8.833 2.25v1.5Zm3.637 9.78 4.166 4.167 1.061-1.06-4.167-4.167-1.06 1.06Z"/></svg><svg viewBox="0 0 18 18" id="shipping-icon" xmlns="http://www.w3.org/2000/svg"><path d="M5.444 15.222a1.778 1.778 0 1 1-3.555 0 1.778 1.778 0 0 1 3.555 0Zm0 0h7.112c.981 0 1.777-.796 1.777-1.778V9.89m-1.777-7.111a1.778 1.778 0 1 0 3.555 0 1.778 1.778 0 0 0-3.555 0Zm0 0H5.444c-.981 0-1.777.796-1.777 1.778V8.11M17 11.667 14.648 9.14a.423.423 0 0 0-.629 0l-2.352 2.527M6.333 6.333 3.981 8.86a.423.423 0 0 1-.629 0L1 6.333"/></svg><svg viewBox="0 0 20 20" id="shopping-cart" xmlns="http://www.w3.org/2000/svg"><path d="M2.5 3.333h.505c.85 0 1.565.64 1.657 1.486l.676 6.195A1.667 1.667 0 0 0 6.995 12.5h7.21c.762 0 1.427-.517 1.615-1.255l1.15-4.51a1.667 1.667 0 0 0-1.615-2.078H5.5m.02 10.864h.626m-.625.625h.625m8.541-.625h.625m-.625.625h.625m-8.645-.313a.833.833 0 1 1-1.667 0 .833.833 0 0 1 1.667 0Zm9.166 0a.833.833 0 1 1-1.666 0 .833.833 0 0 1 1.666 0Z"/></svg><svg viewBox="0 0 18 18" id="size-icon" xmlns="http://www.w3.org/2000/svg"><path d="M12.635 17h-7.27c-1.004 0-1.817-.8-1.817-1.785V8.58c0-.517-.636-.775-1.007-.41-.34.333-.92.15-1-.315L1.026 4.81a1.774 1.774 0 0 1 .857-1.824L5.197 1.03a.228.228 0 0 1 .29.052c1.801 2.21 5.225 2.21 7.025 0a.228.228 0 0 1 .291-.052l3.314 1.954c.64.377.98 1.1.858 1.824l-.517 3.046c-.078.465-.66.648-.999.315-.371-.365-1.007-.107-1.007.41v6.635c0 .986-.813 1.785-1.817 1.785Z"/></svg><svg viewBox="0 0 24 24" id="star_full" xmlns="http://www.w3.org/2000/svg"><path d="m11.905 16.884 5.973 3.604-1.585-6.794 5.276-4.57-6.948-.59-2.716-6.408L9.19 8.534l-6.949.59 5.277 4.57-1.585 6.794 5.972-3.604Z"/></svg><svg viewBox="0 0 24 24" id="star_outline" xmlns="http://www.w3.org/2000/svg"><path d="m21.748 9.123-6.949-.599-2.715-6.398-2.716 6.408-6.949.59 5.277 4.57-1.585 6.794 5.973-3.604 5.972 3.604-1.575-6.794 5.267-4.57Zm-9.665 5.953L8.45 17.27l.966-4.136-3.208-2.783 4.233-.368 1.643-3.894 1.652 3.904 4.233.367-3.209 2.784.967 4.136-3.643-2.204Z"/></svg><svg viewBox="0 0 20 16" id="truck-icon" xmlns="http://www.w3.org/2000/svg"><path d="M11.8 12.667v-11.2A.459.459 0 0 0 11.35 1h-9.9a.459.459 0 0 0-.45.467v11.2c0 .257.201.466.45.466H2.8m9-.466a.459.459 0 0 1-.45.466H6.4m5.4-.466v-8.4c0-.258.201-.467.45-.467h2.964c.119 0 .233.05.318.137l3.336 3.46a.476.476 0 0 1 .132.33v4.94a.459.459 0 0 1-.45.466H17.2m-5.4-.466c0 .257.201.466.45.466h1.35m-10.8 0C2.8 14.164 3.606 15 4.6 15s1.8-.836 1.8-1.867m-3.6 0c0-1.03.806-1.866 1.8-1.866s1.8.835 1.8 1.866m7.2 0c0 1.031.806 1.867 1.8 1.867s1.8-.836 1.8-1.867m-3.6 0c0-1.03.806-1.866 1.8-1.866s1.8.835 1.8 1.866"/></svg><svg viewBox="0 0 19 15" id="twitter" xmlns="http://www.w3.org/2000/svg"><path d="M16.346 3.995c.012.158.012.316.012.474 0 4.823-3.671 10.38-10.38 10.38A10.31 10.31 0 0 1 .376 13.21c.294.034.576.045.88.045a7.306 7.306 0 0 0 4.53-1.558 3.655 3.655 0 0 1-3.41-2.53 4.6 4.6 0 0 0 .688.056c.328 0 .655-.045.96-.124A3.649 3.649 0 0 1 1.1 5.52v-.045c.485.27 1.05.44 1.649.463A3.646 3.646 0 0 1 1.12 2.899c0-.677.181-1.298.497-1.84A10.37 10.37 0 0 0 9.14 4.875a4.118 4.118 0 0 1-.09-.836A3.646 3.646 0 0 1 12.698.392c1.05 0 2 .44 2.666 1.152a7.183 7.183 0 0 0 2.315-.88 3.638 3.638 0 0 1-1.604 2.01 7.313 7.313 0 0 0 2.1-.565 7.843 7.843 0 0 1-1.829 1.886Z"/></svg><svg viewBox="0 0 21 20" id="twitter-form" xmlns="http://www.w3.org/2000/svg"><path d="M6.778 20C4.467 20 2.313 19.182.5 17.77c1.54.121 4.256-.169 5.945-2.131-2.541-.142-3.688-2.515-3.837-3.53.216.102 1.246.224 1.827-.06-2.924-.893-3.372-4.017-3.273-4.97.549.467 1.479.629 1.845.588C.282 5.294 1.262 1.724 1.744.953c1.955 3.298 4.885 5.15 8.51 5.253a6.162 6.162 0 0 1-.104-1.135c0-2.8 1.86-5.071 4.153-5.071 1.199 0 2.279.62 3.037 1.611.8-.228 2.006-.763 2.595-1.226-.297 1.299-1.221 2.382-1.78 2.783.004.014-.005-.014 0 0 .49-.09 1.82-.402 2.345-.835-.26.729-1.24 1.942-2.044 2.62C18.605 12.99 13.555 20 6.777 20Z"/></svg><svg viewBox="0 0 20 20" id="user" xmlns="http://www.w3.org/2000/svg"><path d="M10 11.667a4.167 4.167 0 1 0 0-8.334 4.167 4.167 0 0 0 0 8.334Zm0 0c-3.682 0-6.667 2.238-6.667 5m6.667-5c3.682 0 6.667 2.238 6.667 5"/></svg></svg>