<?xml version="1.0" encoding="utf-8"?><svg viewBox="0 0 154 52" xmlns="http://www.w3.org/2000/svg" xmlns:xlink="http://www.w3.org/1999/xlink"><style>:root>svg{display:none}:root>svg:target{display:block}</style><svg viewBox="0 0 154 52" id="appstore" xmlns="http://www.w3.org/2000/svg"><path d="M153.762 37.887c0 7.458-6.11 13.568-13.568 13.568H13.568C6.11 51.455 0 45.345 0 37.887V13.762C0 6.304 6.11.194 13.568.194h126.626c7.458 0 13.568 6.11 13.568 13.568v24.125Z"/><path d="m58.525 19.044-.65-1.6h-3.02l-.65 1.6h-.8l2.67-6.5h.58l2.67 6.5h-.8Zm-3.39-2.3h2.45l-1.23-3.03-1.22 3.03Zm5.838 2.3-1.81-4.6h.75l1.42 3.61 1.43-3.61h.75l-1.83 4.6h-.71Zm7.01-4.6h.73v4.6h-.73v-.83c-.35.55-.93.91-1.71.91-1.31 0-2.24-1.01-2.24-2.38 0-1.38.93-2.37 2.24-2.37.78 0 1.36.35 1.71.9v-.83Zm-1.62 3.99c.99 0 1.62-.71 1.62-1.69s-.63-1.68-1.62-1.68c-.98 0-1.63.7-1.63 1.68s.65 1.69 1.63 1.69Zm4.041-4.97c-.22 0-.44-.18-.44-.45s.22-.43.44-.43.44.16.44.43-.22.45-.44.45Zm.36 5.58h-.72v-4.6h.73l-.01 4.6Zm2.059 0h-.72v-6.5h.72v6.5Zm5.072-4.6h.73v4.6h-.73v-.83c-.35.55-.93.91-1.71.91-1.31 0-2.24-1.01-2.24-2.38 0-1.38.93-2.37 2.24-2.37.78 0 1.36.35 1.71.9v-.83Zm-1.62 3.99c.99 0 1.62-.71 1.62-1.69s-.63-1.68-1.62-1.68c-.98 0-1.63.7-1.63 1.68s.65 1.69 1.63 1.69Zm6.031-4.06c1.31 0 2.25.99 2.25 2.37 0 1.37-.94 2.38-2.25 2.38-.78 0-1.36-.36-1.71-.91v.83h-.72v-6.5h.72v2.73c.35-.55.93-.9 1.71-.9Zm-.09 4.06c.98 0 1.63-.71 1.63-1.69s-.65-1.68-1.63-1.68c-.98 0-1.62.7-1.62 1.68s.64 1.69 1.62 1.69Zm4.172.61h-.72v-6.5h.72v6.5Zm3.392-4.68c1.32 0 2.2 1.01 2.2 2.38v.23h-3.77c.09.92.72 1.53 1.63 1.53.68 0 1.15-.31 1.41-.7l.51.37c-.4.59-1.08.96-1.92.96-1.4 0-2.33-1.02-2.33-2.39s.89-2.38 2.27-2.38Zm0 .6c-.9 0-1.47.61-1.57 1.51h3.1c-.1-.87-.67-1.51-1.53-1.51Zm7.521 4.17c-1.38 0-2.34-1.02-2.34-2.39 0-1.38.96-2.38 2.34-2.38s2.34 1 2.34 2.38c0 1.37-.96 2.39-2.34 2.39Zm0-.7c.97 0 1.61-.72 1.61-1.69s-.64-1.68-1.61-1.68c-.97 0-1.62.71-1.62 1.68s.65 1.69 1.62 1.69Zm5.654-4.06c.92 0 1.83.54 1.83 1.84v2.83h-.72v-2.73c0-.88-.62-1.31-1.3-1.31-.69 0-1.29.43-1.29 1.31v2.73h-.72v-4.6h.72v.62c.35-.48.91-.69 1.48-.69Zm7.265.64h-1.1v2.83c0 .49.3.61.64.61h.41v.59h-.67c-.7 0-1.11-.4-1.11-1.1v-2.93h-.64v-.57h.64v-1.4h.73v1.4h1.1v.57Zm3.194-.64c.92 0 1.83.54 1.83 1.84v2.83h-.72v-2.73c0-.88-.62-1.31-1.3-1.31-.69 0-1.29.43-1.29 1.31v2.73h-.72v-6.5h.72v2.52c.35-.48.91-.69 1.48-.69Zm5.223-.01c1.32 0 2.2 1.01 2.2 2.38v.23h-3.77c.09.92.72 1.53 1.63 1.53.68 0 1.15-.31 1.41-.7l.51.37c-.4.59-1.08.96-1.92.96-1.4 0-2.33-1.02-2.33-2.39s.89-2.38 2.27-2.38Zm0 .6c-.9 0-1.47.61-1.57 1.51h3.1c-.1-.87-.67-1.51-1.53-1.51ZM60.472 40.194l-1.17-2.88h-5.436l-1.17 2.88h-1.44l4.806-11.7h1.044l4.806 11.7h-1.44Zm-6.102-4.14h4.41L56.566 30.6l-2.196 5.454Zm13.472-4.266c2.358 0 4.05 1.818 4.05 4.284 0 2.484-1.692 4.266-4.05 4.266-1.404 0-2.448-.63-3.078-1.638v4.806h-1.296V31.914h1.296v1.512c.63-1.008 1.674-1.638 3.078-1.638Zm-.162 7.308c1.764 0 2.934-1.26 2.934-3.024s-1.17-3.042-2.934-3.042c-1.764 0-2.916 1.278-2.916 3.042 0 1.764 1.152 3.024 2.916 3.024Zm10.585-7.308c2.359 0 4.05 1.818 4.05 4.284 0 2.484-1.691 4.266-4.05 4.266-1.403 0-2.448-.63-3.078-1.638v4.806h-1.296V31.914h1.296v1.512c.63-1.008 1.675-1.638 3.079-1.638Zm-.162 7.308c1.765 0 2.934-1.26 2.934-3.024s-1.17-3.042-2.934-3.042c-1.763 0-2.915 1.278-2.915 3.042 0 1.764 1.151 3.024 2.915 3.024Zm9.456-1.404 1.116-.738c.414 1.098 1.854 2.088 3.798 2.088 2.016 0 2.862-.756 2.862-2.106 0-1.53-2.286-1.89-3.348-2.196-1.134-.306-4.014-.792-4.014-3.204 0-2.196 1.872-3.24 4.374-3.24 2.16 0 3.888 1.044 4.32 2.322l-1.116.666c-.324-.864-1.656-1.638-3.348-1.638-1.746 0-2.7.684-2.7 1.836 0 1.44 2.088 1.746 3.24 2.052 1.044.306 4.086.918 4.086 3.348 0 2.304-1.674 3.51-4.482 3.51-2.52 0-4.23-1.17-4.788-2.7Zm15.076-4.752h-1.98v5.094c0 .882.54 1.098 1.152 1.098h.738v1.062h-1.206c-1.26 0-1.998-.72-1.998-1.98V32.94H98.19v-1.026h1.152v-2.52h1.314v2.52h1.98v1.026Zm5.328 7.416c-2.484 0-4.212-1.836-4.212-4.302 0-2.484 1.728-4.284 4.212-4.284s4.212 1.8 4.212 4.284c0 2.466-1.728 4.302-4.212 4.302Zm0-1.26c1.746 0 2.898-1.296 2.898-3.042 0-1.746-1.152-3.024-2.898-3.024-1.746 0-2.916 1.278-2.916 3.024s1.17 3.042 2.916 3.042Zm7.514-5.652c.63-1.134 1.746-1.638 2.916-1.656v1.242c-1.278.018-2.916.684-2.916 2.7v4.464h-1.296v-8.28h1.296v1.53Zm7.846-1.674c2.376 0 3.96 1.818 3.96 4.284v.414h-6.786c.162 1.656 1.296 2.754 2.934 2.754 1.224 0 2.07-.558 2.538-1.26l.918.666c-.72 1.062-1.944 1.728-3.456 1.728-2.52 0-4.194-1.836-4.194-4.302 0-2.466 1.602-4.284 4.086-4.284Zm0 1.08c-1.62 0-2.646 1.098-2.826 2.718h5.58c-.18-1.566-1.206-2.718-2.754-2.718ZM26.933 10.931H11.03a2.358 2.358 0 0 0-2.358 2.359V40.2a2.358 2.358 0 0 0 2.358 2.36h15.904a2.358 2.358 0 0 0 2.36-2.36V13.29c0-1.28-1.08-2.359-2.36-2.359Z"/><path d="M28.147 14.727H9.794v22.194h18.353V14.727ZM22.733 12.346h-7.525a.57.57 0 0 0-.562.562c0 .314.247.561.562.561h7.525a.57.57 0 0 0 .561-.561.57.57 0 0 0-.561-.562ZM17.185 39.594c0-.988.808-1.82 1.797-1.82.988 0 1.82.81 1.82 1.82 0 .989-.81 1.797-1.82 1.797-.989.023-1.797-.786-1.797-1.797Z"/></svg><svg viewBox="0 0 23 26" id="arrow-card" xmlns="http://www.w3.org/2000/svg"><path d="M11.568 1.286V23.89M22 15.196l-9.203 9.202a1.739 1.739 0 0 1-2.459 0l-9.202-9.202"/></svg><svg viewBox="0 0 23 27" id="arrow-card-black" xmlns="http://www.w3.org/2000/svg"><path d="M11.568 1.62v22.602M22 15.53l-9.203 9.203a1.739 1.739 0 0 1-2.459 0l-9.202-9.203"/></svg><svg viewBox="0 0 20 14" id="categories-arrow" xmlns="http://www.w3.org/2000/svg"><path d="M18.957 7.718a.838.838 0 0 0 0-1.185l-5.332-5.332a.838.838 0 0 0-1.185 1.185l4.74 4.74-4.74 4.74a.838.838 0 0 0 1.185 1.184l5.332-5.332ZM.49 7.963h17.876V6.288H.489v1.675Z"/></svg><svg viewBox="0 0 11 19" id="facebook" xmlns="http://www.w3.org/2000/svg"><path d="M9.437 10.463 9.93 7.24h-3.09v-2.09c0-.881.43-1.74 1.815-1.74h1.405V.667S8.787.45 7.568.45c-2.545 0-4.21 1.543-4.21 4.336v2.455H.529v3.222h2.83v7.787H6.84v-7.787h2.597Z"/></svg><svg viewBox="0 0 20 20" id="heart" xmlns="http://www.w3.org/2000/svg"><path fill-rule="evenodd" clip-rule="evenodd" d="M9.995 4.93c-1.5-1.747-4-2.217-5.879-.617-1.879 1.6-2.143 4.275-.668 6.168 1.227 1.574 4.94 4.892 6.156 5.966.136.12.204.18.284.204.069.02.145.02.214 0 .08-.023.147-.084.284-.204 1.216-1.074 4.929-4.392 6.156-5.966 1.475-1.893 1.243-4.585-.668-6.168-1.911-1.584-4.38-1.13-5.88.617Z"/></svg><svg viewBox="0 0 13 14" id="in" xmlns="http://www.w3.org/2000/svg"><path d="M2.839 4.244v9.028H.428V4.244h2.41ZM.277 1.891c0-.35.123-.64.368-.868.244-.228.572-.342.984-.342.406 0 .732.114.976.342.25.228.376.518.376.868s-.125.64-.376.868c-.244.228-.57.342-.976.342-.412 0-.74-.114-.984-.342a1.135 1.135 0 0 1-.368-.868Zm7.242 4.28v7.101H5.116V4.244H7.37l.15 1.927Zm-.35 2.27h-.65c0-.668.085-1.268.258-1.802.172-.54.414-.999.726-1.377a3.119 3.119 0 0 1 1.11-.876 3.345 3.345 0 0 1 1.451-.309c.423 0 .81.061 1.16.184.35.122.65.317.901.584.256.267.45.62.584 1.06.14.439.209.976.209 1.61v5.757h-2.42V7.506c0-.4-.055-.712-.167-.934a.937.937 0 0 0-.492-.467c-.211-.095-.473-.142-.784-.142-.323 0-.604.064-.843.192a1.675 1.675 0 0 0-.584.534 2.52 2.52 0 0 0-.342.784c-.078.3-.117.623-.117.968Z"/></svg><svg viewBox="0 0 17 17" id="inst" xmlns="http://www.w3.org/2000/svg"><path d="M8.466 4.67A3.988 3.988 0 0 0 4.47 8.664a3.988 3.988 0 0 0 3.995 3.995 3.988 3.988 0 0 0 3.994-3.995A3.988 3.988 0 0 0 8.466 4.67Zm0 6.591a2.602 2.602 0 0 1-2.597-2.597 2.6 2.6 0 0 1 2.597-2.597 2.6 2.6 0 0 1 2.597 2.597 2.602 2.602 0 0 1-2.597 2.597Zm5.09-6.755a.93.93 0 0 1-.932.932.932.932 0 1 1 .932-.932Zm2.645.946c-.059-1.248-.344-2.354-1.258-3.265-.911-.91-2.017-1.196-3.265-1.258-1.286-.073-5.142-.073-6.428 0-1.245.059-2.35.344-3.265 1.255C1.071 3.094.79 4.2.727 5.448c-.073 1.287-.073 5.142 0 6.428.059 1.249.344 2.354 1.258 3.265.915.91 2.017 1.196 3.265 1.258 1.286.073 5.142.073 6.428 0 1.248-.059 2.354-.344 3.264-1.258.911-.91 1.197-2.016 1.26-3.264.072-1.287.072-5.139 0-6.425Zm-1.662 7.805a2.63 2.63 0 0 1-1.48 1.48c-1.026.407-3.46.314-4.593.314-1.134 0-3.57.09-4.593-.313a2.63 2.63 0 0 1-1.48-1.481c-.408-1.026-.314-3.46-.314-4.593s-.09-3.57.313-4.592A2.63 2.63 0 0 1 3.873 2.59c1.026-.407 3.46-.313 4.593-.313s3.57-.09 4.592.313a2.63 2.63 0 0 1 1.481 1.48c.407 1.026.313 3.46.313 4.593s.094 3.57-.313 4.593Z"/></svg><svg viewBox="0 0 154 52" id="playmarket" xmlns="http://www.w3.org/2000/svg"><path d="M153.762 37.865c0 7.458-6.11 13.568-13.568 13.568H13.568C6.11 51.433 0 45.323 0 37.865V13.762C0 6.304 6.11.194 13.568.194h126.626c7.458 0 13.568 6.11 13.568 13.568v24.103Z"/><path d="M54.927 14.594h.73v4.6h-.73v-.83c-.35.55-.93.91-1.71.91-1.31 0-2.24-1.01-2.24-2.38 0-1.38.93-2.37 2.24-2.37.78 0 1.36.35 1.71.9v-.83Zm-1.62 3.99c.99 0 1.62-.71 1.62-1.69s-.63-1.68-1.62-1.68c-.98 0-1.63.7-1.63 1.68s.65 1.69 1.63 1.69Zm5.8-4.06c.92 0 1.83.54 1.83 1.84v2.83h-.72v-2.73c0-.88-.62-1.31-1.3-1.31-.69 0-1.29.43-1.29 1.31v2.73h-.72v-4.6h.72v.62c.35-.48.91-.69 1.48-.69Zm6.904-1.83h.73v6.5h-.73v-.83c-.35.55-.93.91-1.71.91-1.31 0-2.24-1.01-2.24-2.38 0-1.38.93-2.37 2.24-2.37.78 0 1.36.35 1.71.9v-2.73Zm-1.62 5.89c.99 0 1.62-.71 1.62-1.69s-.63-1.68-1.62-1.68c-.98 0-1.63.7-1.63 1.68s.65 1.69 1.63 1.69Zm4.32-3.14c.35-.63.97-.91 1.62-.92v.69c-.71.01-1.62.38-1.62 1.5v2.48h-.72v-4.6h.72v.85Zm4.43 3.84c-1.38 0-2.34-1.02-2.34-2.39 0-1.38.96-2.38 2.34-2.38s2.34 1 2.34 2.38c0 1.37-.96 2.39-2.34 2.39Zm0-.7c.97 0 1.61-.72 1.61-1.69s-.64-1.68-1.61-1.68c-.97 0-1.62.71-1.62 1.68s.65 1.69 1.62 1.69Zm3.894-4.97c-.22 0-.44-.18-.44-.45s.22-.43.44-.43.44.16.44.43-.22.45-.44.45Zm.36 5.58h-.72v-4.6h.73l-.01 4.6Zm5.15-6.5h.73v6.5h-.73v-.83c-.35.55-.93.91-1.71.91-1.31 0-2.24-1.01-2.24-2.38 0-1.38.93-2.37 2.24-2.37.78 0 1.36.35 1.71.9v-2.73Zm-1.62 5.89c.99 0 1.62-.71 1.62-1.69s-.63-1.68-1.62-1.68c-.98 0-1.63.7-1.63 1.68s.65 1.69 1.63 1.69Zm9.412-3.99h.73v4.6h-.73v-.83c-.35.55-.93.91-1.71.91-1.31 0-2.24-1.01-2.24-2.38 0-1.38.93-2.37 2.24-2.37.78 0 1.36.35 1.71.9v-.83Zm-1.62 3.99c.99 0 1.62-.71 1.62-1.69s-.63-1.68-1.62-1.68c-.98 0-1.63.7-1.63 1.68s.65 1.69 1.63 1.69Zm6.031-4.06c1.31 0 2.25 1.01 2.25 2.38 0 1.38-.94 2.37-2.25 2.37-.78 0-1.36-.35-1.71-.91v2.67h-.72v-6.44h.72v.84c.35-.56.93-.91 1.71-.91Zm-.09 4.06c.98 0 1.63-.7 1.63-1.68s-.65-1.69-1.63-1.69c-.98 0-1.62.71-1.62 1.69s.64 1.68 1.62 1.68Zm5.881-4.06c1.31 0 2.25 1.01 2.25 2.38 0 1.38-.94 2.37-2.25 2.37-.78 0-1.36-.35-1.71-.91v2.67h-.72v-6.44h.72v.84c.35-.56.93-.91 1.71-.91Zm-.09 4.06c.98 0 1.63-.7 1.63-1.68s-.65-1.69-1.63-1.69c-.98 0-1.62.71-1.62 1.69s.64 1.68 1.62 1.68Zm7.653.7c-1.38 0-2.34-1.02-2.34-2.39 0-1.38.96-2.38 2.34-2.38s2.34 1 2.34 2.38c0 1.37-.96 2.39-2.34 2.39Zm0-.7c.97 0 1.61-.72 1.61-1.69s-.64-1.68-1.61-1.68c-.97 0-1.62.71-1.62 1.68s.65 1.69 1.62 1.69Zm5.654-4.06c.92 0 1.83.54 1.83 1.84v2.83h-.72v-2.73c0-.88-.62-1.31-1.3-1.31-.69 0-1.29.43-1.29 1.31v2.73h-.72v-4.6h.72v.62c.35-.48.91-.69 1.48-.69ZM60.125 34.375c-.108 3.33-2.232 5.724-5.616 5.724-3.474 0-5.85-2.52-5.85-5.994 0-3.474 2.376-5.994 5.85-5.994 2.07 0 3.726.9 4.734 2.34l-1.116.792c-.828-1.152-2.124-1.764-3.618-1.764-2.682 0-4.5 1.944-4.5 4.626 0 2.682 1.818 4.626 4.5 4.626 2.214 0 3.852-1.422 4.086-3.672h-4.14v-1.26h5.67v.576Zm6.05 5.742c-2.483 0-4.211-1.836-4.211-4.302 0-2.484 1.728-4.284 4.212-4.284s4.212 1.8 4.212 4.284c0 2.466-1.728 4.302-4.212 4.302Zm0-1.26c1.747 0 2.899-1.296 2.899-3.042 0-1.746-1.152-3.024-2.898-3.024-1.746 0-2.916 1.278-2.916 3.024s1.17 3.042 2.916 3.042Zm10.178 1.26c-2.483 0-4.212-1.836-4.212-4.302 0-2.484 1.728-4.284 4.212-4.284 2.485 0 4.213 1.8 4.213 4.284 0 2.466-1.728 4.302-4.213 4.302Zm0-1.26c1.747 0 2.898-1.296 2.898-3.042 0-1.746-1.151-3.024-2.898-3.024-1.745 0-2.915 1.278-2.915 3.024s1.17 3.042 2.915 3.042Zm13.076-7.182h1.314v7.668c0 2.376-1.692 4.032-4.356 4.032-1.44 0-2.664-.558-3.42-1.458l.882-.738c.666.738 1.584 1.062 2.538 1.062 1.53 0 3.042-.918 3.042-2.898v-.882c-.63.99-1.674 1.638-3.078 1.638-2.358 0-4.032-1.818-4.032-4.284 0-2.466 1.674-4.266 4.032-4.266 1.404 0 2.448.63 3.078 1.62v-1.494Zm-2.916 7.182c1.764 0 2.916-1.278 2.916-3.042 0-1.764-1.152-3.024-2.916-3.024s-2.934 1.26-2.934 3.024 1.17 3.042 2.934 3.042Zm7.778 1.098h-1.296v-11.7h1.296v11.7Zm6.106-8.424c2.376 0 3.96 1.818 3.96 4.284v.414h-6.786c.162 1.656 1.296 2.754 2.934 2.754 1.224 0 2.07-.558 2.538-1.26l.918.666c-.72 1.062-1.944 1.728-3.456 1.728-2.52 0-4.194-1.836-4.194-4.302 0-2.466 1.602-4.284 4.086-4.284Zm0 1.08c-1.62 0-2.646 1.098-2.826 2.718h5.58c-.18-1.566-1.206-2.718-2.754-2.718Zm14.852-4.356c1.764 0 3.348 1.404 3.348 3.564s-1.584 3.564-3.348 3.564h-3.924v4.572h-1.35v-11.7h5.274Zm-.198 5.814c1.26 0 2.178-.99 2.178-2.25 0-1.242-.9-2.232-2.178-2.232h-3.726v4.482h3.726Zm6.732 5.886h-1.296v-11.7h1.296v11.7Zm9.131-8.28h1.314v8.28h-1.314V38.46c-.63.99-1.674 1.638-3.078 1.638-2.358 0-4.032-1.818-4.032-4.284 0-2.484 1.674-4.266 4.032-4.266 1.404 0 2.448.63 3.078 1.62v-1.494Zm-2.916 7.182c1.782 0 2.916-1.278 2.916-3.042 0-1.764-1.134-3.024-2.916-3.024-1.764 0-2.934 1.26-2.934 3.024s1.17 3.042 2.934 3.042Zm12.187-7.182h1.35l-4.608 11.592h-1.278l1.296-3.33-3.24-8.262h1.35l2.556 6.48 2.574-6.48ZM8.67 42.313V9.336l29.652 16.017-29.651 16.96Z"/><path d="m8.67 9.336 20.981 20.981 8.671-4.964L8.671 9.336Z"/><path d="M29.472 20.568 8.67 42.312l29.651-16.96-8.85-4.784Z"/><path d="m29.652 30.317 8.67-4.964-8.85-4.785-4.672 4.897 4.852 4.852Z"/></svg><svg viewBox="0 0 9 6" id="product-slide-arrow" xmlns="http://www.w3.org/2000/svg"><path fill-rule="evenodd" clip-rule="evenodd" d="M8.203 5.316a.588.588 0 0 1-.824-.111L4.445 1.357a.238.238 0 0 0-.253 0L1.258 5.205a.588.588 0 1 1-.935-.713L3.267.63a1.01 1.01 0 0 1 .158-.167 1.41 1.41 0 0 1 1.786 0c.072.06.124.122.159.167l2.944 3.862a.588.588 0 0 1-.111.824Z"/></svg><svg viewBox="0 0 24 45" id="promo-arrow" xmlns="http://www.w3.org/2000/svg"><g clip-path="url(#ka)"><path fill-rule="evenodd" clip-rule="evenodd" d="M.566.698A1.705 1.705 0 0 1 2.426.33c.207.085.395.21.554.368l20.454 20.337a1.694 1.694 0 0 1 .5 1.2 1.687 1.687 0 0 1-.5 1.2L2.98 43.772a1.712 1.712 0 0 1-2.414 0 1.692 1.692 0 0 1 0-2.4l19.251-19.137L.566 3.098a1.694 1.694 0 0 1-.5-1.2 1.686 1.686 0 0 1 .5-1.2Z"/></g><defs><clipPath id="ka"><path d="M0 0h24v44.471H0z"/></clipPath></defs></svg><svg viewBox="0 0 20 20" id="search" xmlns="http://www.w3.org/2000/svg"><path d="M16.636 17.697a.75.75 0 0 0 1.061-1.06l-1.06 1.06Zm-2.72-8.864a5.083 5.083 0 0 1-5.083 5.084v1.5a6.583 6.583 0 0 0 6.584-6.584h-1.5Zm-5.083 5.084A5.083 5.083 0 0 1 3.75 8.833h-1.5a6.583 6.583 0 0 0 6.583 6.584v-1.5ZM3.75 8.833A5.083 5.083 0 0 1 8.833 3.75v-1.5A6.583 6.583 0 0 0 2.25 8.833h1.5ZM8.833 3.75a5.083 5.083 0 0 1 5.084 5.083h1.5A6.583 6.583 0 0 0 8.833 2.25v1.5Zm3.637 9.78 4.166 4.167 1.061-1.06-4.167-4.167-1.06 1.06Z"/></svg><svg viewBox="0 0 20 20" id="shopping-cart" xmlns="http://www.w3.org/2000/svg"><path d="M2.5 3.333h.505c.85 0 1.565.64 1.657 1.486l.676 6.195A1.667 1.667 0 0 0 6.995 12.5h7.21c.762 0 1.427-.517 1.615-1.255l1.15-4.51a1.667 1.667 0 0 0-1.615-2.078H5.5m.02 10.864h.626m-.625.625h.625m8.541-.625h.625m-.625.625h.625m-8.645-.313a.833.833 0 1 1-1.667 0 .833.833 0 0 1 1.667 0Zm9.166 0a.833.833 0 1 1-1.666 0 .833.833 0 0 1 1.666 0Z"/></svg><svg viewBox="0 0 24 24" id="star_full" xmlns="http://www.w3.org/2000/svg"><path d="m11.905 16.884 5.973 3.604-1.585-6.794 5.276-4.57-6.948-.59-2.716-6.408L9.19 8.534l-6.949.59 5.277 4.57-1.585 6.794 5.972-3.604Z"/></svg><svg viewBox="0 0 24 24" id="star_outline" xmlns="http://www.w3.org/2000/svg"><path d="m21.748 9.123-6.949-.599-2.715-6.398-2.716 6.408-6.949.59 5.277 4.57-1.585 6.794 5.973-3.604 5.972 3.604-1.575-6.794 5.267-4.57Zm-9.665 5.953L8.45 17.27l.966-4.136-3.208-2.783 4.233-.368 1.643-3.894 1.652 3.904 4.233.367-3.209 2.784.967 4.136-3.643-2.204Z"/></svg><svg viewBox="0 0 19 15" id="twitter" xmlns="http://www.w3.org/2000/svg"><path d="M16.346 3.995c.012.158.012.316.012.474 0 4.823-3.671 10.38-10.38 10.38A10.31 10.31 0 0 1 .376 13.21c.294.034.576.045.88.045a7.306 7.306 0 0 0 4.53-1.558 3.655 3.655 0 0 1-3.41-2.53 4.6 4.6 0 0 0 .688.056c.328 0 .655-.045.96-.124A3.649 3.649 0 0 1 1.1 5.52v-.045c.485.27 1.05.44 1.649.463A3.646 3.646 0 0 1 1.12 2.899c0-.677.181-1.298.497-1.84A10.37 10.37 0 0 0 9.14 4.875a4.118 4.118 0 0 1-.09-.836A3.646 3.646 0 0 1 12.698.392c1.05 0 2 .44 2.666 1.152a7.183 7.183 0 0 0 2.315-.88 3.638 3.638 0 0 1-1.604 2.01 7.313 7.313 0 0 0 2.1-.565 7.843 7.843 0 0 1-1.829 1.886Z"/></svg><svg viewBox="0 0 20 20" id="user" xmlns="http://www.w3.org/2000/svg"><path d="M10 11.667a4.167 4.167 0 1 0 0-8.334 4.167 4.167 0 0 0 0 8.334Zm0 0c-3.682 0-6.667 2.238-6.667 5m6.667-5c3.682 0 6.667 2.238 6.667 5"/></svg></svg>