<?xml version="1.0" encoding="utf-8"?><svg viewBox="0 0 24 45" xmlns="http://www.w3.org/2000/svg" xmlns:xlink="http://www.w3.org/1999/xlink"><style>:root>svg{display:none}:root>svg:target{display:block}</style><svg viewBox="0 0 23 26" id="arrow-card" xmlns="http://www.w3.org/2000/svg"><path d="M11.568 1.286V23.89M22 15.196l-9.203 9.202a1.739 1.739 0 0 1-2.459 0l-9.202-9.202"/></svg><svg viewBox="0 0 23 27" id="arrow-card-black" xmlns="http://www.w3.org/2000/svg"><path d="M11.568 1.62v22.602M22 15.53l-9.203 9.203a1.739 1.739 0 0 1-2.459 0l-9.202-9.203"/></svg><svg viewBox="0 0 20 14" id="categories-arrow" xmlns="http://www.w3.org/2000/svg"><path d="M18.957 7.718a.838.838 0 0 0 0-1.185l-5.332-5.332a.838.838 0 0 0-1.185 1.185l4.74 4.74-4.74 4.74a.838.838 0 0 0 1.185 1.184l5.332-5.332ZM.49 7.963h17.876V6.288H.489v1.675Z"/></svg><svg viewBox="0 0 20 20" id="heart" xmlns="http://www.w3.org/2000/svg"><path fill-rule="evenodd" clip-rule="evenodd" d="M9.995 4.93c-1.5-1.747-4-2.217-5.879-.617-1.879 1.6-2.143 4.275-.668 6.168 1.227 1.574 4.94 4.892 6.156 5.966.136.12.204.18.284.204.069.02.145.02.214 0 .08-.023.147-.084.284-.204 1.216-1.074 4.929-4.392 6.156-5.966 1.475-1.893 1.243-4.585-.668-6.168-1.911-1.584-4.38-1.13-5.88.617Z"/></svg><svg viewBox="0 0 24 45" id="promo-arrow" xmlns="http://www.w3.org/2000/svg"><g clip-path="url(#ea)"><path fill-rule="evenodd" clip-rule="evenodd" d="M.566.698A1.705 1.705 0 0 1 2.426.33c.207.085.395.21.554.368l20.454 20.337a1.694 1.694 0 0 1 .5 1.2 1.687 1.687 0 0 1-.5 1.2L2.98 43.772a1.712 1.712 0 0 1-2.414 0 1.692 1.692 0 0 1 0-2.4l19.251-19.137L.566 3.098a1.694 1.694 0 0 1-.5-1.2 1.686 1.686 0 0 1 .5-1.2Z"/></g><defs><clipPath id="ea"><path d="M0 0h24v44.471H0z"/></clipPath></defs></svg><svg viewBox="0 0 20 20" id="search" xmlns="http://www.w3.org/2000/svg"><path d="M16.636 17.697a.75.75 0 0 0 1.061-1.06l-1.06 1.06Zm-2.72-8.864a5.083 5.083 0 0 1-5.083 5.084v1.5a6.583 6.583 0 0 0 6.584-6.584h-1.5Zm-5.083 5.084A5.083 5.083 0 0 1 3.75 8.833h-1.5a6.583 6.583 0 0 0 6.583 6.584v-1.5ZM3.75 8.833A5.083 5.083 0 0 1 8.833 3.75v-1.5A6.583 6.583 0 0 0 2.25 8.833h1.5ZM8.833 3.75a5.083 5.083 0 0 1 5.084 5.083h1.5A6.583 6.583 0 0 0 8.833 2.25v1.5Zm3.637 9.78 4.166 4.167 1.061-1.06-4.167-4.167-1.06 1.06Z"/></svg><svg viewBox="0 0 20 20" id="shopping-cart" xmlns="http://www.w3.org/2000/svg"><path d="M2.5 3.333h.505c.85 0 1.565.64 1.657 1.486l.676 6.195A1.667 1.667 0 0 0 6.995 12.5h7.21c.762 0 1.427-.517 1.615-1.255l1.15-4.51a1.667 1.667 0 0 0-1.615-2.078H5.5m.02 10.864h.626m-.625.625h.625m8.541-.625h.625m-.625.625h.625m-8.645-.313a.833.833 0 1 1-1.667 0 .833.833 0 0 1 1.667 0Zm9.166 0a.833.833 0 1 1-1.666 0 .833.833 0 0 1 1.666 0Z"/></svg><svg viewBox="0 0 20 20" id="user" xmlns="http://www.w3.org/2000/svg"><path d="M10 11.667a4.167 4.167 0 1 0 0-8.334 4.167 4.167 0 0 0 0 8.334Zm0 0c-3.682 0-6.667 2.238-6.667 5m6.667-5c3.682 0 6.667 2.238 6.667 5"/></svg></svg>